<mxfile host="app.diagrams.net" agent="Mozilla/5.0 (Macintosh; Intel Mac OS X 10_15_7) AppleWebKit/605.1.15 (KHTML, like Gecko) Version/16.4 Safari/605.1.15" version="26.2.14">
  <diagram name="Page-1" id="6hVG1EY_lDp3bFyYUqou">
    <mxGraphModel dx="1529" dy="396" grid="1" gridSize="10" guides="1" tooltips="1" connect="1" arrows="1" fold="1" page="1" pageScale="1" pageWidth="850" pageHeight="1100" math="0" shadow="0">
      <root>
        <mxCell id="0" />
        <mxCell id="1" parent="0" />
        <mxCell id="BC_4qotDHSGj5d-U19qa-140" value="" style="group" vertex="1" connectable="0" parent="1">
          <mxGeometry x="-50" y="200" width="350" height="150" as="geometry" />
        </mxCell>
        <mxCell id="BC_4qotDHSGj5d-U19qa-90" value="user" style="rounded=0;whiteSpace=wrap;html=1;fontSize=8;fontStyle=1" vertex="1" parent="BC_4qotDHSGj5d-U19qa-140">
          <mxGeometry x="160" y="110" width="140" height="40" as="geometry" />
        </mxCell>
        <mxCell id="BC_4qotDHSGj5d-U19qa-91" value="" style="endArrow=none;html=1;rounded=0;exitX=0.114;exitY=0.004;exitDx=0;exitDy=0;exitPerimeter=0;entryX=0.477;entryY=1.082;entryDx=0;entryDy=0;entryPerimeter=0;fontSize=8;fontStyle=1" edge="1" parent="BC_4qotDHSGj5d-U19qa-140" source="BC_4qotDHSGj5d-U19qa-90" target="BC_4qotDHSGj5d-U19qa-92">
          <mxGeometry width="50" height="50" relative="1" as="geometry">
            <mxPoint x="170" y="100" as="sourcePoint" />
            <mxPoint x="160" y="80" as="targetPoint" />
          </mxGeometry>
        </mxCell>
        <mxCell id="BC_4qotDHSGj5d-U19qa-92" value="&lt;font&gt;&lt;u&gt;userid&lt;/u&gt;&lt;/font&gt;" style="ellipse;whiteSpace=wrap;html=1;fontSize=8;fontStyle=1" vertex="1" parent="BC_4qotDHSGj5d-U19qa-140">
          <mxGeometry x="150" y="80.18" width="40" height="20" as="geometry" />
        </mxCell>
        <mxCell id="BC_4qotDHSGj5d-U19qa-93" value="" style="endArrow=none;html=1;rounded=0;exitX=0.114;exitY=0.004;exitDx=0;exitDy=0;exitPerimeter=0;entryX=0.477;entryY=1.082;entryDx=0;entryDy=0;entryPerimeter=0;fontSize=8;fontStyle=1" edge="1" parent="BC_4qotDHSGj5d-U19qa-140" target="BC_4qotDHSGj5d-U19qa-94">
          <mxGeometry width="50" height="50" relative="1" as="geometry">
            <mxPoint x="220" y="110" as="sourcePoint" />
            <mxPoint x="210" y="80" as="targetPoint" />
          </mxGeometry>
        </mxCell>
        <mxCell id="BC_4qotDHSGj5d-U19qa-94" value="name" style="ellipse;whiteSpace=wrap;html=1;fontSize=8;fontStyle=1" vertex="1" parent="BC_4qotDHSGj5d-U19qa-140">
          <mxGeometry x="200" y="70" width="40" height="20" as="geometry" />
        </mxCell>
        <mxCell id="BC_4qotDHSGj5d-U19qa-95" value="" style="endArrow=none;html=1;rounded=0;entryX=0;entryY=0;entryDx=0;entryDy=0;exitX=0.591;exitY=1.022;exitDx=0;exitDy=0;exitPerimeter=0;fontSize=8;fontStyle=1" edge="1" parent="BC_4qotDHSGj5d-U19qa-140" source="BC_4qotDHSGj5d-U19qa-96" target="BC_4qotDHSGj5d-U19qa-94">
          <mxGeometry width="50" height="50" relative="1" as="geometry">
            <mxPoint x="200" y="70" as="sourcePoint" />
            <mxPoint x="210" y="140" as="targetPoint" />
          </mxGeometry>
        </mxCell>
        <mxCell id="BC_4qotDHSGj5d-U19qa-96" value="first_name" style="ellipse;whiteSpace=wrap;html=1;fontSize=8;fontStyle=1" vertex="1" parent="BC_4qotDHSGj5d-U19qa-140">
          <mxGeometry x="160" y="40" width="50" height="30" as="geometry" />
        </mxCell>
        <mxCell id="BC_4qotDHSGj5d-U19qa-97" value="" style="endArrow=none;html=1;rounded=0;exitX=0.5;exitY=1;exitDx=0;exitDy=0;fontSize=8;fontStyle=1" edge="1" parent="BC_4qotDHSGj5d-U19qa-140" source="BC_4qotDHSGj5d-U19qa-98">
          <mxGeometry width="50" height="50" relative="1" as="geometry">
            <mxPoint x="250" y="51.629999999999995" as="sourcePoint" />
            <mxPoint x="220" y="70" as="targetPoint" />
          </mxGeometry>
        </mxCell>
        <mxCell id="BC_4qotDHSGj5d-U19qa-98" value="middle_name" style="ellipse;whiteSpace=wrap;html=1;fontSize=8;fontStyle=1" vertex="1" parent="BC_4qotDHSGj5d-U19qa-140">
          <mxGeometry x="185" y="10" width="70" height="30" as="geometry" />
        </mxCell>
        <mxCell id="BC_4qotDHSGj5d-U19qa-99" value="" style="endArrow=none;html=1;rounded=0;entryX=1;entryY=0;entryDx=0;entryDy=0;exitX=0.372;exitY=0.99;exitDx=0;exitDy=0;exitPerimeter=0;fontSize=8;fontStyle=1" edge="1" parent="BC_4qotDHSGj5d-U19qa-140" source="BC_4qotDHSGj5d-U19qa-101" target="BC_4qotDHSGj5d-U19qa-94">
          <mxGeometry width="50" height="50" relative="1" as="geometry">
            <mxPoint x="250" y="60" as="sourcePoint" />
            <mxPoint x="216" y="93" as="targetPoint" />
          </mxGeometry>
        </mxCell>
        <mxCell id="BC_4qotDHSGj5d-U19qa-101" value="last_name" style="ellipse;whiteSpace=wrap;html=1;fontSize=8;fontStyle=1" vertex="1" parent="BC_4qotDHSGj5d-U19qa-140">
          <mxGeometry x="230" y="40" width="50" height="30" as="geometry" />
        </mxCell>
        <mxCell id="BC_4qotDHSGj5d-U19qa-102" value="" style="endArrow=none;html=1;rounded=0;entryX=0.323;entryY=0.914;entryDx=0;entryDy=0;entryPerimeter=0;fontSize=8;fontStyle=1" edge="1" parent="BC_4qotDHSGj5d-U19qa-140" target="BC_4qotDHSGj5d-U19qa-104">
          <mxGeometry width="50" height="50" relative="1" as="geometry">
            <mxPoint x="270" y="110" as="sourcePoint" />
            <mxPoint x="280" y="90" as="targetPoint" />
          </mxGeometry>
        </mxCell>
        <mxCell id="BC_4qotDHSGj5d-U19qa-104" value="contact_info" style="ellipse;whiteSpace=wrap;html=1;fontSize=8;fontStyle=1" vertex="1" parent="BC_4qotDHSGj5d-U19qa-140">
          <mxGeometry x="280" y="70" width="60" height="20" as="geometry" />
        </mxCell>
        <mxCell id="BC_4qotDHSGj5d-U19qa-110" value="" style="endArrow=none;html=1;rounded=0;exitX=0.591;exitY=1.022;exitDx=0;exitDy=0;exitPerimeter=0;entryX=0.5;entryY=0;entryDx=0;entryDy=0;fontSize=8;fontStyle=1" edge="1" parent="BC_4qotDHSGj5d-U19qa-140" source="BC_4qotDHSGj5d-U19qa-111" target="BC_4qotDHSGj5d-U19qa-104">
          <mxGeometry width="50" height="50" relative="1" as="geometry">
            <mxPoint x="330" y="60" as="sourcePoint" />
            <mxPoint x="336" y="63" as="targetPoint" />
          </mxGeometry>
        </mxCell>
        <mxCell id="BC_4qotDHSGj5d-U19qa-112" value="" style="endArrow=none;html=1;rounded=0;exitX=0.372;exitY=0.99;exitDx=0;exitDy=0;exitPerimeter=0;fontSize=8;fontStyle=1" edge="1" parent="BC_4qotDHSGj5d-U19qa-140" source="BC_4qotDHSGj5d-U19qa-113">
          <mxGeometry width="50" height="50" relative="1" as="geometry">
            <mxPoint x="380" y="50" as="sourcePoint" />
            <mxPoint x="310" y="70" as="targetPoint" />
          </mxGeometry>
        </mxCell>
        <mxCell id="BC_4qotDHSGj5d-U19qa-113" value="" style="ellipse;whiteSpace=wrap;html=1;fontSize=8;fontStyle=1" vertex="1" parent="BC_4qotDHSGj5d-U19qa-140">
          <mxGeometry x="300" y="30" width="50" height="30" as="geometry" />
        </mxCell>
        <mxCell id="BC_4qotDHSGj5d-U19qa-116" value="" style="endArrow=none;html=1;rounded=0;exitX=0.004;exitY=0.433;exitDx=0;exitDy=0;entryX=1;entryY=0.5;entryDx=0;entryDy=0;exitPerimeter=0;fontSize=8;fontStyle=1" edge="1" parent="BC_4qotDHSGj5d-U19qa-140" target="BC_4qotDHSGj5d-U19qa-117" source="BC_4qotDHSGj5d-U19qa-90">
          <mxGeometry width="50" height="50" relative="1" as="geometry">
            <mxPoint x="160" y="114.18" as="sourcePoint" />
            <mxPoint x="70" y="114.18" as="targetPoint" />
          </mxGeometry>
        </mxCell>
        <mxCell id="BC_4qotDHSGj5d-U19qa-117" value="Address" style="ellipse;whiteSpace=wrap;html=1;fontSize=8;fontStyle=1" vertex="1" parent="BC_4qotDHSGj5d-U19qa-140">
          <mxGeometry x="50" y="104.18" width="50" height="25.82" as="geometry" />
        </mxCell>
        <mxCell id="BC_4qotDHSGj5d-U19qa-118" value="" style="endArrow=none;html=1;rounded=0;entryX=0;entryY=0;entryDx=0;entryDy=0;exitX=0.591;exitY=1.022;exitDx=0;exitDy=0;exitPerimeter=0;fontSize=8;fontStyle=1" edge="1" parent="BC_4qotDHSGj5d-U19qa-140" source="BC_4qotDHSGj5d-U19qa-119" target="BC_4qotDHSGj5d-U19qa-117">
          <mxGeometry width="50" height="50" relative="1" as="geometry">
            <mxPoint x="60" y="104.18" as="sourcePoint" />
            <mxPoint x="70" y="174.18" as="targetPoint" />
          </mxGeometry>
        </mxCell>
        <mxCell id="BC_4qotDHSGj5d-U19qa-119" value="city" style="ellipse;whiteSpace=wrap;html=1;fontSize=8;fontStyle=1" vertex="1" parent="BC_4qotDHSGj5d-U19qa-140">
          <mxGeometry x="10" y="74.18" width="50" height="30" as="geometry" />
        </mxCell>
        <mxCell id="BC_4qotDHSGj5d-U19qa-120" value="" style="endArrow=none;html=1;rounded=0;exitX=0.591;exitY=1.022;exitDx=0;exitDy=0;exitPerimeter=0;entryX=0.5;entryY=0;entryDx=0;entryDy=0;fontSize=8;fontStyle=1" edge="1" parent="BC_4qotDHSGj5d-U19qa-140" source="BC_4qotDHSGj5d-U19qa-121" target="BC_4qotDHSGj5d-U19qa-117">
          <mxGeometry width="50" height="50" relative="1" as="geometry">
            <mxPoint x="110" y="85.81" as="sourcePoint" />
            <mxPoint x="70.98429830771823" y="114.18457791680561" as="targetPoint" />
          </mxGeometry>
        </mxCell>
        <mxCell id="BC_4qotDHSGj5d-U19qa-130" style="edgeStyle=orthogonalEdgeStyle;rounded=0;orthogonalLoop=1;jettySize=auto;html=1;exitX=0;exitY=0;exitDx=0;exitDy=0;fontSize=8;fontStyle=1" edge="1" parent="BC_4qotDHSGj5d-U19qa-140" source="BC_4qotDHSGj5d-U19qa-121">
          <mxGeometry relative="1" as="geometry">
            <mxPoint x="57.19047619047615" y="54.47619047619048" as="targetPoint" />
          </mxGeometry>
        </mxCell>
        <mxCell id="BC_4qotDHSGj5d-U19qa-121" value="street" style="ellipse;whiteSpace=wrap;html=1;fontSize=8;fontStyle=1" vertex="1" parent="BC_4qotDHSGj5d-U19qa-140">
          <mxGeometry x="50" y="50.18000000000001" width="50" height="30" as="geometry" />
        </mxCell>
        <mxCell id="BC_4qotDHSGj5d-U19qa-122" value="" style="endArrow=none;html=1;rounded=0;entryX=1;entryY=0;entryDx=0;entryDy=0;exitX=0.372;exitY=0.99;exitDx=0;exitDy=0;exitPerimeter=0;fontSize=8;fontStyle=1" edge="1" parent="BC_4qotDHSGj5d-U19qa-140" source="BC_4qotDHSGj5d-U19qa-123" target="BC_4qotDHSGj5d-U19qa-117">
          <mxGeometry width="50" height="50" relative="1" as="geometry">
            <mxPoint x="110" y="94.18" as="sourcePoint" />
            <mxPoint x="76" y="127.18" as="targetPoint" />
          </mxGeometry>
        </mxCell>
        <mxCell id="BC_4qotDHSGj5d-U19qa-123" value="postal_code" style="ellipse;whiteSpace=wrap;html=1;fontSize=8;fontStyle=1" vertex="1" parent="BC_4qotDHSGj5d-U19qa-140">
          <mxGeometry x="90" y="74.18" width="50" height="30" as="geometry" />
        </mxCell>
        <mxCell id="BC_4qotDHSGj5d-U19qa-124" value="" style="endArrow=none;html=1;rounded=0;entryX=0;entryY=0;entryDx=0;entryDy=0;exitX=0.591;exitY=1.022;exitDx=0;exitDy=0;exitPerimeter=0;fontSize=8;fontStyle=1" edge="1" parent="BC_4qotDHSGj5d-U19qa-140" source="BC_4qotDHSGj5d-U19qa-125">
          <mxGeometry width="50" height="50" relative="1" as="geometry">
            <mxPoint x="60" y="50.18000000000001" as="sourcePoint" />
            <mxPoint x="57" y="54" as="targetPoint" />
          </mxGeometry>
        </mxCell>
        <mxCell id="BC_4qotDHSGj5d-U19qa-125" value="street_no" style="ellipse;whiteSpace=wrap;html=1;fontSize=8;fontStyle=1" vertex="1" parent="BC_4qotDHSGj5d-U19qa-140">
          <mxGeometry y="20" width="50" height="30" as="geometry" />
        </mxCell>
        <mxCell id="BC_4qotDHSGj5d-U19qa-126" value="" style="endArrow=none;html=1;rounded=0;exitX=0.591;exitY=1.022;exitDx=0;exitDy=0;exitPerimeter=0;entryX=0.5;entryY=0;entryDx=0;entryDy=0;fontSize=8;fontStyle=1" edge="1" parent="BC_4qotDHSGj5d-U19qa-140" source="BC_4qotDHSGj5d-U19qa-127">
          <mxGeometry width="50" height="50" relative="1" as="geometry">
            <mxPoint x="110" y="31.810000000000002" as="sourcePoint" />
            <mxPoint x="75" y="50" as="targetPoint" />
          </mxGeometry>
        </mxCell>
        <mxCell id="BC_4qotDHSGj5d-U19qa-127" value="street_name" style="ellipse;whiteSpace=wrap;html=1;fontSize=8;fontStyle=1" vertex="1" parent="BC_4qotDHSGj5d-U19qa-140">
          <mxGeometry x="50" width="50" height="30" as="geometry" />
        </mxCell>
        <mxCell id="BC_4qotDHSGj5d-U19qa-128" value="" style="endArrow=none;html=1;rounded=0;entryX=1;entryY=0;entryDx=0;entryDy=0;exitX=0.372;exitY=0.99;exitDx=0;exitDy=0;exitPerimeter=0;fontSize=8;fontStyle=1" edge="1" parent="BC_4qotDHSGj5d-U19qa-140" source="BC_4qotDHSGj5d-U19qa-129">
          <mxGeometry width="50" height="50" relative="1" as="geometry">
            <mxPoint x="110" y="40.18000000000001" as="sourcePoint" />
            <mxPoint x="93" y="54" as="targetPoint" />
          </mxGeometry>
        </mxCell>
        <mxCell id="BC_4qotDHSGj5d-U19qa-129" value="apartment_&lt;div&gt;name&lt;/div&gt;" style="ellipse;whiteSpace=wrap;html=1;fontSize=8;fontStyle=1" vertex="1" parent="BC_4qotDHSGj5d-U19qa-140">
          <mxGeometry x="100" y="20" width="50" height="30" as="geometry" />
        </mxCell>
        <mxCell id="BC_4qotDHSGj5d-U19qa-137" value="phone_no" style="ellipse;whiteSpace=wrap;html=1;fontSize=8;fontStyle=1" vertex="1" parent="BC_4qotDHSGj5d-U19qa-140">
          <mxGeometry x="305" y="35" width="40" height="20" as="geometry" />
        </mxCell>
        <mxCell id="BC_4qotDHSGj5d-U19qa-142" value="" style="group" vertex="1" connectable="0" parent="BC_4qotDHSGj5d-U19qa-140">
          <mxGeometry x="255" width="50" height="30" as="geometry" />
        </mxCell>
        <mxCell id="BC_4qotDHSGj5d-U19qa-111" value="email" style="ellipse;whiteSpace=wrap;html=1;fontSize=8;fontStyle=1" vertex="1" parent="BC_4qotDHSGj5d-U19qa-142">
          <mxGeometry width="50" height="30" as="geometry" />
        </mxCell>
        <mxCell id="BC_4qotDHSGj5d-U19qa-141" value="email" style="ellipse;whiteSpace=wrap;html=1;fontSize=8;fontStyle=1" vertex="1" parent="BC_4qotDHSGj5d-U19qa-142">
          <mxGeometry x="7.5" y="5" width="35" height="20" as="geometry" />
        </mxCell>
        <mxCell id="BC_4qotDHSGj5d-U19qa-181" value="" style="group" vertex="1" connectable="0" parent="1">
          <mxGeometry x="-90" y="400" width="150" height="79.82" as="geometry" />
        </mxCell>
        <mxCell id="BC_4qotDHSGj5d-U19qa-145" value="login_credntial" style="rounded=0;whiteSpace=wrap;html=1;fontSize=8;fontStyle=1" vertex="1" parent="BC_4qotDHSGj5d-U19qa-181">
          <mxGeometry x="30" y="49.81999999999999" width="80" height="30" as="geometry" />
        </mxCell>
        <mxCell id="BC_4qotDHSGj5d-U19qa-146" value="" style="endArrow=none;html=1;rounded=0;exitX=0.114;exitY=0.004;exitDx=0;exitDy=0;exitPerimeter=0;entryX=0.477;entryY=1.082;entryDx=0;entryDy=0;entryPerimeter=0;fontSize=8;fontStyle=1" edge="1" parent="BC_4qotDHSGj5d-U19qa-181" source="BC_4qotDHSGj5d-U19qa-145" target="BC_4qotDHSGj5d-U19qa-147">
          <mxGeometry width="50" height="50" relative="1" as="geometry">
            <mxPoint x="40" y="39.81999999999999" as="sourcePoint" />
            <mxPoint x="30" y="19.819999999999993" as="targetPoint" />
          </mxGeometry>
        </mxCell>
        <mxCell id="BC_4qotDHSGj5d-U19qa-147" value="&lt;font&gt;&lt;u&gt;credid&lt;/u&gt;&lt;/font&gt;" style="ellipse;whiteSpace=wrap;html=1;fontSize=8;fontStyle=1" vertex="1" parent="BC_4qotDHSGj5d-U19qa-181">
          <mxGeometry y="20" width="60" height="20" as="geometry" />
        </mxCell>
        <mxCell id="BC_4qotDHSGj5d-U19qa-148" value="" style="endArrow=none;html=1;rounded=0;exitX=0.5;exitY=0;exitDx=0;exitDy=0;entryX=0.477;entryY=1.082;entryDx=0;entryDy=0;entryPerimeter=0;fontSize=8;fontStyle=1" edge="1" parent="BC_4qotDHSGj5d-U19qa-181" target="BC_4qotDHSGj5d-U19qa-149" source="BC_4qotDHSGj5d-U19qa-145">
          <mxGeometry width="50" height="50" relative="1" as="geometry">
            <mxPoint x="90" y="49.81999999999999" as="sourcePoint" />
            <mxPoint x="80" y="19.819999999999993" as="targetPoint" />
          </mxGeometry>
        </mxCell>
        <mxCell id="BC_4qotDHSGj5d-U19qa-149" value="username" style="ellipse;whiteSpace=wrap;html=1;fontSize=8;fontStyle=1" vertex="1" parent="BC_4qotDHSGj5d-U19qa-181">
          <mxGeometry x="50" width="40" height="20" as="geometry" />
        </mxCell>
        <mxCell id="BC_4qotDHSGj5d-U19qa-156" value="" style="endArrow=none;html=1;rounded=0;entryX=0.323;entryY=0.914;entryDx=0;entryDy=0;entryPerimeter=0;fontSize=8;fontStyle=1;exitX=0.893;exitY=-0.073;exitDx=0;exitDy=0;exitPerimeter=0;" edge="1" parent="BC_4qotDHSGj5d-U19qa-181" target="BC_4qotDHSGj5d-U19qa-157" source="BC_4qotDHSGj5d-U19qa-145">
          <mxGeometry width="50" height="50" relative="1" as="geometry">
            <mxPoint x="140" y="49.81999999999999" as="sourcePoint" />
            <mxPoint x="150" y="29.819999999999993" as="targetPoint" />
          </mxGeometry>
        </mxCell>
        <mxCell id="BC_4qotDHSGj5d-U19qa-157" value="encrypt_pass" style="ellipse;whiteSpace=wrap;html=1;fontSize=8;fontStyle=1" vertex="1" parent="BC_4qotDHSGj5d-U19qa-181">
          <mxGeometry x="90" y="20" width="60" height="20" as="geometry" />
        </mxCell>
      </root>
    </mxGraphModel>
  </diagram>
</mxfile>
